<?xml version="1.0" encoding="utf-8"?>
<!-- Generator: Adobe Illustrator 19.0.0, SVG Export Plug-In . SVG Version: 6.00 Build 0)  -->
<svg version="1.1" id="Layer_1" xmlns="http://www.w3.org/2000/svg" xmlns:xlink="http://www.w3.org/1999/xlink" x="0px" y="0px"
	 viewBox="0 0 362.7 168.3" style="enable-background:new 0 0 362.7 168.3;" xml:space="preserve">
<style type="text/css">
	.st0{fill:#7BC19C;}
	.st1{fill:none;}
	.st2{font-family:'MyriadPro-Regular';}
	.st3{font-size:36px;}
</style>
<g id="XMLID_2_">
	<path id="XMLID_23_" class="st0" d="M176.5,25.6c13.1,0,24.1,5.1,33.5,14.1c2.4,2.3,3,4.5,1.7,7.5c-1.7,3.9-3.6,7.5-7.4,9.7
		c-1.8,1-2.8,2.5-3.5,4.3c-1.4,3.2-3.3,5.9-6.2,8c-2.6,1.9-5.2,2.9-8.6,1.3c-3.5-1.7-7.4-1.9-11.3-1.5c-0.8,0.1-1.9-0.1-2.3,0.9
		c-0.4,1.1,0.4,2,1.1,2.7c1.8,1.6,3.7,2.2,6.1,1.3c1.9-0.7,3.9-0.7,4.7,1.7c0.9,2.7-1.1,3.7-3.1,4.5c-7.6,3-17.5-4.6-16.6-12.7
		c0.2-2.3,1.8-3.1,3.8-3.8c6.1-2,12.2-1.8,18.3,0.1c3.4,1.1,8.4-2.5,8.5-5.9c0.1-1.6-1.4-1.8-2.3-2.3c-11.7-6.6-23.1-6.1-34.4,1
		c-2.3,1.4-4.9,5.1-7.3,0.9c-2.1-3.7,1.9-5.1,4.2-6.6c13.7-8.5,27.6-8.9,41.5-0.6c3,1.8,4.9,1.4,6.7-1.2c1.8-2.5,2.5-4.5-0.5-7.1
		c-15.3-13.3-38.1-13.1-53.6,0.7c-0.7,0.6-1.3,1.2-1.9,1.8c-1.7,1.7-3.6,3.8-5.9,1.2c-2.3-2.5-0.1-4.3,1.5-6
		C151.5,30.8,163.9,25.6,176.5,25.6z"/>
	<path id="XMLID_22_" class="st0" d="M176.3,14.5c-14.8-0.2-27.4,5.3-38.2,15.1c-1.1,1-2.1,2.1-3.2,3.1c-1.6,1.7-3.5,2.6-5.4,0.6
		c-1.6-1.7-0.8-3.5,0.6-5.1c25.3-27.1,65.4-27.2,90.6-1.8c1.6,1.6,2.8,3.3,0.7,5.2c-2,1.8-3.8,0.8-5.4-0.8
		c-9.7-9.6-21.3-15.2-35-16.4C179.5,14.4,177.9,14.5,176.3,14.5z"/>
</g>
<g id="XMLID_1_">
	<path id="XMLID_17_" d="M197.2,93.7c-0.2-0.1-0.3-0.1-0.4-0.2c-2.9-3.3-2.8-3.4,1.2-5.4c2.3-1.2,4.4-2.8,6.8-3.9
		c4.7-2.1,9.4-4.1,14.3-5.8c4-1.4,8-2.5,12.2-3.2c5.8-1,11.7-1.7,17.5-2.4c12.4-1.4,24.9-1.1,37.4-0.9c8.2,0.1,16.3,0.3,24.5,0.5
		c0.6,0,1.3,0.1,1.9-0.1c2.2-0.4,2.5-0.9,2-3.1c-0.4-1.7-0.7-3.4-1.1-5.1c-6.8,0.5-13.4,1-20.1,1.4c-6.6,0.4-13.3,0.5-19.9,0.9
		c-5.1,0.3-10.2,1.1-15.3,1.6c-3.3,0.3-6.5,0.4-9.8,0.9c-4.5,0.7-8.9,1.6-13.4,2.4c-2,0.4-4,0.7-6,1.2c-5,1.5-9.9,3-14.8,4.6
		c-1.9,0.6-3.9,1.3-5.7,2.1c-4.5,2.1-9.3,3.8-13.4,6.5c-2.5,1.6-4.1,1.8-6.2-0.1c-0.2-0.2-0.6-0.3-1.5-0.8
		c5.5-2.9,10.7-5.6,15.9-8.2c2.5-1.2,4.9-2.5,7.6-3.3c7-2.1,13.9-4.2,21-5.9c4.7-1.1,9.5-1.4,14.2-2.5c6.1-1.5,12.3-1.6,18.5-2
		c5.7-0.3,11.3-0.9,17-1.2c6.8-0.4,13.7-0.4,20.5-0.9c4.3-0.3,8.5-1,12.7-1.6c2.2-0.3,3.5,0.4,3.5,2.6c-0.1,4.8,1.2,9.4,3,13.8
		c1.7,4.1,4.6,7.4,7.7,10.4c0.5,0.5,1.3,0.7,2,0.8c2.1,0.5,4.3,0.9,6.4,1.5c2.2,0.6,3.6,3.2,3.1,5.4c-0.6,2.6-2.9,4.3-5.3,3.9
		c-6.6-1.1-13.2-2.3-19.9-3.4c-2.6-0.4-5.3-0.6-7.9-0.9c-9-0.7-17.9-1.7-26.9-2c-9.8-0.4-19.6-0.7-29.4-0.4
		c-6.4,0.2-12.9,0.4-19.2,2.3c-3.7,1.1-7.6,1.4-11.2,2.7c-3.5,1.3-6.9,3-10.2,5c-3.8,2.3-6.3,5.8-8.7,9.6c-2,3.3-4.8,6.2-7.9,8.6
		c-2.9,2.3-6.5,4.1-10,5.1c-3.2,0.9-6.8,1-10.1,0.6c-6.2-0.6-11.5-3.5-15.7-7.9c-2.8-2.9-5-6.5-7.5-9.8c-2.4-3.2-5.3-5.7-8.7-7.7
		c-6.6-3.9-13.9-5.6-21.4-6.8c-4.8-0.8-9.7-1.1-14.6-1.4c-6.4-0.4-12.7-0.8-19.1-0.7c-8.3,0.1-16.6,0.6-24.8,1.2
		c-7.5,0.6-14.9,1.4-22.3,2.5c-5.9,0.8-11.8,2.1-17.6,3.1c-2.3,0.4-4.8,1-6.5-1.3c-0.7-1-1.4-2.4-1.2-3.6c0.2-1.5,0.4-3.5,2.6-3.9
		c2.2-0.5,4.5-0.9,6.7-1.7c1.6-0.6,3.3-1.4,4.4-2.7c2.1-2.5,4.1-5.2,5.4-8.1c1.3-2.8,1.9-6,2.6-9.1c0.4-1.7,0.3-3.5,0.5-5.2
		c0.2-2.2,1.4-2.9,3.6-2.6c5.5,0.7,11,1.4,16.5,1.7c8.1,0.5,16.2,0.4,24.2,0.9c6.7,0.4,13.4,1.2,20.1,2c5,0.6,10,1.4,14.9,2.1
		c2.8,0.4,5.6,0.9,8.4,1.6c3.5,0.9,7,2,10.5,3c2.8,0.9,5.7,1.6,8.4,2.8c5,2.1,9.8,4.5,14.7,6.8c1.9,0.9,3.8,1.9,5.6,2.9
		c1.2,0.7,2.3,1.5,3.7,2.4c-0.5,0.1-0.9,0-1,0.2c-3.5,3.9-6,0.3-8.9-1c-5.1-2.4-10.3-4.7-15.5-6.8c-3.3-1.4-6.8-2.5-10.3-3.4
		c-5.5-1.5-11-2.9-16.6-3.9c-5.9-1-11.9-1.6-17.8-2.2c-7.9-0.8-15.9-1.4-23.9-2c-0.5,0-1,0-1.4,0c-5.6-0.2-11.2-0.4-16.8-0.8
		c-4.4-0.3-8.8-0.8-13.5-1.2c-0.4,2.2-1,4.4-1.4,6.7c-0.1,0.3,0.4,0.9,0.7,1c0.7,0.3,1.6,0.5,2.4,0.5c6.8,0,13.6,0.1,20.4,0
		c10.3-0.1,20.6-0.6,30.9-0.4c7.1,0.1,14.3,0.9,21.4,1.8c5.4,0.7,10.7,1.7,15.9,3.2c7.8,2.2,15.5,5,22.4,9.3c2,1.3,4,2.5,6.2,3.9
		c-1,1.4-1.8,2.5-2.5,3.5c-3-1.7-5.8-3.4-8.7-5c-1.5-0.8-2.9-1.7-4.5-2.4c-3.6-1.4-7.1-2.9-10.8-3.9c-7.4-2.1-15-3.5-22.7-4.6
		c-15.2-2-30.4-1.5-45.6-1.5c-7,0-14,0.4-21,0.4c-2.2,0-4.5-0.4-6.4-0.6c-1.6,2.9-3.1,5.5-4.8,8.6c3-0.2,5.5-0.4,8-0.7
		c3.8-0.5,7.5-1.1,11.3-1.5c4.6-0.6,9.2-1.1,13.8-1.6c2.8-0.3,5.6-0.4,8.4-0.5c5.5-0.2,11-0.4,16.4-0.4c6.8,0.1,13.6,0.2,20.3,0.9
		c5.8,0.6,11.5,1.8,17.2,3.2c4.6,1.1,9.1,2.5,13.5,4.2c3.2,1.3,6.2,3.2,9,5.3c2.5,1.9,4.6,4.4,6.9,6.7c1.2,1.2,1.8,0.2,2-0.7
		c0.8-3.5,2.7-6.1,5.3-8.4c3-2.6,6.2-4.3,10.2-4.7c6.9-0.7,12.2,2.1,16.4,7.4c1.3,1.6,1.8,3.8,2.7,5.7c0.2,0.4,0.6,1.1,0.9,1.1
		c0.4,0.1,0.9-0.4,1.2-0.8c3.6-4.2,7.8-7.5,12.6-10.2c6.1-3.4,12.7-4.9,19.3-6.8c2-0.6,4.2-0.7,6.2-1c7.7-1.2,15.4-1.9,23.3-1.7
		c6.9,0.1,13.8-0.2,20.7,0.1c5.2,0.2,10.4,1,15.7,1.5c2.5,0.2,5.1,0.2,7.6,0.5c3.8,0.4,7.5,1.1,11.3,1.5c2.5,0.3,4.9,0.4,8,0.6
		c-1.7-3.1-3.2-5.6-4.9-8.6c-1.4,0.1-3.3,0.5-5.1,0.5c-6.7,0.1-13.3,0.1-20,0c-11.1-0.1-22.2-0.5-33.4-0.3c-6.8,0.1-13.6,1.1-20.3,2
		c-4.2,0.6-8.2,1.8-12.3,2.8c-2.9,0.7-5.9,1.5-8.7,2.6c-3.7,1.4-7.3,3-10.9,4.8C202.9,90.1,200.2,91.9,197.2,93.7z"/>
</g>
<rect id="XMLID_3_" x="104" y="130.3" class="st1" width="380" height="116"/>
<text id="XMLID_4_" transform="matrix(1 0 0 1 104 155.8929)"><tspan x="0" y="0" class="st2 st3">Audio</tspan><tspan x="90.4" y="0" class="st0 st2 st3">Docs</tspan></text>
</svg>
